<?xml version="1.0" encoding="UTF-8" standalone="no"?>
<!DOCTYPE svg PUBLIC "-//W3C//DTD SVG 20010904//EN"
              "http://www.w3.org/TR/2001/REC-SVG-20010904/DTD/svg10.dtd">

<svg xmlns="http://www.w3.org/2000/svg"
     width="33.903mm" height="20.6725mm"
     viewBox="0 0 123 75">
  <path id="Selection"
        fill="#f5fcfcbf"
        d="M 19.61,35.20
           C 19.61,35.20 20.95,32.18 20.95,32.18
             20.95,32.18 24.58,24.34 24.58,24.34
             24.58,24.34 25.52,22.32 25.52,22.32
             25.62,22.09 25.88,21.43 26.05,21.29
             26.21,21.15 26.45,21.17 26.65,21.17
             26.65,21.17 31.40,21.17 31.40,21.17
             31.40,21.17 32.62,21.24 32.62,21.24
             32.62,21.24 38.08,21.24 38.08,21.24
             38.08,21.24 39.16,21.32 39.16,21.32
             39.16,21.32 44.62,21.32 44.62,21.32
             44.62,21.32 45.69,21.39 45.69,21.39
             45.69,21.39 55.32,21.39 55.32,21.39
             55.32,21.39 56.40,21.46 56.40,21.46
             56.40,21.46 58.34,21.46 58.34,21.46
             58.34,21.46 59.20,21.53 59.20,21.53
             60.97,21.66 62.91,21.98 64.52,22.77
             65.54,23.28 66.98,24.28 67.21,25.49
             67.29,25.90 66.97,26.05 66.67,26.26
             66.67,26.26 64.59,27.80 64.59,27.80
             64.59,27.80 58.84,32.62 58.84,32.62
             58.84,32.62 56.26,34.70 56.26,34.70
             55.90,33.93 55.68,33.12 55.23,32.40
             54.54,31.28 53.19,30.53 51.87,30.53
             51.87,30.53 34.41,30.53 34.41,30.53
             33.66,30.53 33.78,30.58 33.28,31.68
             33.28,31.68 31.68,35.20 31.68,35.20
             31.68,35.20 46.56,35.20 46.56,35.20
             46.56,35.20 47.63,35.27 47.63,35.27
             47.63,35.27 58.12,35.27 58.12,35.27
             58.27,35.27 58.49,35.28 58.63,35.23
             58.91,35.13 59.53,34.44 59.78,34.19
             59.78,34.19 62.65,31.40 62.65,31.40
             62.65,31.40 64.82,29.44 64.82,29.44
             67.44,27.35 70.98,25.14 74.00,23.70
             75.83,22.82 78.20,21.97 80.18,21.57
             80.92,21.42 82.04,21.17 82.77,21.17
             82.77,21.17 89.66,21.17 89.66,21.17
             89.66,21.17 101.88,21.17 101.88,21.17
             101.88,21.17 109.56,21.17 109.56,21.17
             109.56,21.17 111.86,21.17 111.86,21.17
             112.30,21.17 112.81,21.13 113.23,21.24
             113.23,21.24 112.26,23.69 112.26,23.69
             112.26,23.69 110.59,27.79 110.59,27.79
             110.59,27.79 109.84,29.66 109.84,29.66
             109.78,29.82 109.60,30.31 109.50,30.41
             109.31,30.61 108.51,30.45 108.20,30.45
             108.20,30.45 95.20,30.45 95.20,30.45
             95.20,30.45 94.12,30.38 94.12,30.38
             94.12,30.38 86.79,30.38 86.79,30.38
             86.79,30.38 85.71,30.31 85.71,30.31
             83.89,30.31 82.06,30.23 80.25,30.47
             77.77,30.81 75.19,31.98 73.14,33.39
             72.52,33.81 71.21,34.73 70.77,35.27
             70.77,35.27 122.86,35.27 122.86,35.27
             122.86,35.27 122.86,36.78 122.86,36.78
             122.86,36.78 109.21,36.78 109.21,36.78
             109.21,36.78 107.41,36.78 107.41,36.78
             107.41,36.78 105.90,36.86 105.90,36.86
             105.90,36.86 104.82,36.78 104.82,36.78
             104.82,36.78 69.62,36.78 69.62,36.78
             69.47,36.78 69.25,36.78 69.12,36.83
             68.84,36.93 68.27,37.56 68.04,37.79
             68.04,37.79 66.77,39.07 66.77,39.07
             66.77,39.07 65.38,40.52 65.38,40.52
             61.94,43.72 58.42,47.08 54.10,49.06
             52.14,49.96 50.11,50.66 47.99,51.06
             47.26,51.20 46.52,51.39 45.77,51.39
             45.77,51.39 43.32,51.39 43.32,51.39
             43.32,51.39 42.10,51.32 42.10,51.32
             42.10,51.32 36.28,51.32 36.28,51.32
             36.28,51.32 35.13,51.24 35.13,51.24
             35.13,51.24 24.50,51.24 24.50,51.24
             24.50,51.24 23.42,51.17 23.42,51.17
             23.42,51.17 18.03,51.17 18.03,51.17
             18.03,51.17 16.96,51.10 16.96,51.10
             16.96,51.10 13.94,51.10 13.94,51.10
             13.46,51.10 12.72,51.15 12.29,51.03
             12.29,51.03 13.43,48.44 13.43,48.44
             13.43,48.44 15.22,44.55 15.22,44.55
             15.22,44.55 17.59,39.45 17.59,39.45
             17.59,39.45 18.82,36.86 18.82,36.86
             18.82,36.86 0.00,36.86 0.00,36.86
             0.00,36.86 0.00,35.20 0.00,35.20
             0.00,35.20 19.61,35.20 19.61,35.20 Z
           M 65.60,25.13
           C 65.60,25.13 65.02,24.68 65.02,24.68
             64.78,24.51 63.94,24.04 63.66,23.92
             61.20,22.88 58.03,22.90 55.39,22.90
             55.39,22.90 52.52,22.90 52.52,22.90
             52.52,22.90 51.30,22.83 51.30,22.83
             51.30,22.83 41.89,22.83 41.89,22.83
             41.89,22.83 40.81,22.76 40.81,22.76
             40.81,22.76 35.85,22.76 35.85,22.76
             35.85,22.76 34.77,22.68 34.77,22.68
             34.77,22.68 29.17,22.68 29.17,22.68
             29.17,22.68 28.31,22.61 28.31,22.61
             28.31,22.61 27.37,22.61 27.37,22.61
             27.21,22.61 26.96,22.60 26.83,22.69
             26.66,22.80 26.20,23.88 26.09,24.12
             26.09,24.12 23.91,28.87 23.91,28.87
             23.91,28.87 17.47,42.83 17.47,42.83
             17.47,42.83 15.64,46.78 15.64,46.78
             15.64,46.78 14.37,49.59 14.37,49.59
             14.37,49.59 15.81,49.59 15.81,49.59
             15.81,49.59 16.96,49.66 16.96,49.66
             16.96,49.66 21.98,49.66 21.98,49.66
             21.98,49.66 23.21,49.73 23.21,49.73
             23.21,49.73 28.95,49.73 28.95,49.73
             28.95,49.73 30.03,49.81 30.03,49.81
             30.03,49.81 39.66,49.81 39.66,49.81
             39.66,49.81 40.81,49.88 40.81,49.88
             40.81,49.88 45.98,49.88 45.98,49.88
             47.25,49.88 48.52,49.50 49.72,49.14
             51.14,48.71 52.55,48.23 53.88,47.56
             58.16,45.41 61.81,42.09 65.22,38.79
             65.22,38.79 66.47,37.43 66.47,37.43
             66.47,37.43 68.75,35.14 68.75,35.14
             69.98,33.97 72.26,32.18 73.71,31.32
             73.71,31.32 75.94,30.21 75.94,30.21
             75.94,30.21 77.09,29.81 77.09,29.81
             78.66,29.29 79.20,29.20 80.83,28.99
             80.83,28.99 82.05,28.80 82.05,28.80
             82.05,28.80 83.27,28.87 83.27,28.87
             83.27,28.87 90.67,28.87 90.67,28.87
             90.67,28.87 91.75,28.94 91.75,28.94
             91.75,28.94 99.29,28.94 99.29,28.94
             99.29,28.94 100.37,29.01 100.37,29.01
             100.37,29.01 108.77,29.01 108.77,29.01
             108.77,29.01 109.64,26.86 109.64,26.86
             109.64,26.86 111.36,22.61 111.36,22.61
             111.36,22.61 83.84,22.61 83.84,22.61
             83.84,22.61 81.98,22.81 81.98,22.81
             80.43,22.99 79.00,23.38 77.52,23.86
             77.52,23.86 76.30,24.26 76.30,24.26
             76.30,24.26 74.50,25.11 74.50,25.11
             71.90,26.34 69.45,27.84 67.10,29.50
             67.10,29.50 65.52,30.63 65.52,30.63
             65.52,30.63 61.93,33.98 61.93,33.98
             59.68,36.16 57.11,38.81 54.53,40.55
             54.53,40.55 53.09,41.38 53.09,41.38
             52.04,42.00 51.03,42.36 49.86,42.71
             49.11,42.94 48.73,43.11 47.92,43.12
             47.92,43.12 26.80,43.12 26.80,43.12
             26.86,42.69 27.10,42.28 27.27,41.89
             27.27,41.89 28.23,39.73 28.23,39.73
             28.23,39.73 31.65,32.18 31.65,32.18
             31.65,32.18 32.63,30.02 32.63,30.02
             32.73,29.81 32.94,29.26 33.09,29.13
             33.25,28.99 33.50,29.01 33.70,29.01
             33.70,29.01 48.35,29.01 48.35,29.01
             48.35,29.01 52.02,29.01 52.02,29.01
             53.28,29.02 54.73,29.75 55.58,30.68
             56.03,31.18 56.45,31.87 56.76,32.47
             56.76,32.47 59.49,30.24 59.49,30.24
             61.50,28.56 63.45,26.80 65.60,25.27
             65.60,25.27 65.60,25.13 65.60,25.13 Z
           M 57.05,36.78
           C 57.05,36.78 31.54,36.78 31.54,36.78
             30.81,36.79 30.89,36.89 30.41,37.94
             30.41,37.94 29.94,39.01 29.94,39.01
             29.94,39.01 28.74,41.68 28.74,41.68
             28.74,41.68 42.10,41.68 42.10,41.68
             42.10,41.68 47.56,41.68 47.56,41.68
             48.32,41.68 49.06,41.46 49.79,41.25
             51.76,40.69 53.90,39.49 55.46,38.16
             55.93,37.76 56.68,37.25 57.05,36.78 Z
           M 70.55,37.58
           C 71.01,37.98 71.42,39.27 71.76,39.88
             72.50,41.17 74.29,42.32 75.80,42.32
             75.80,42.32 95.12,42.32 95.12,42.32
             95.12,42.32 101.02,42.32 101.02,42.32
             101.64,42.32 103.40,42.26 103.89,42.40
             103.89,42.40 102.86,44.84 102.86,44.84
             102.86,44.84 100.84,49.52 100.84,49.52
             100.84,49.52 100.21,50.96 100.21,50.96
             100.13,51.14 100.02,51.43 99.85,51.53
             99.70,51.62 99.46,51.60 99.29,51.60
             99.29,51.60 92.11,51.60 92.11,51.60
             92.11,51.60 91.03,51.68 91.03,51.68
             91.03,51.68 76.08,51.68 76.08,51.68
             76.08,51.68 68.04,51.68 68.04,51.68
             67.49,51.67 66.76,51.43 66.24,51.26
             64.72,50.74 63.35,49.94 62.15,48.88
             61.66,48.45 60.84,47.65 60.71,47.00
             64.60,44.61 67.21,40.59 70.55,37.58 Z
           M 70.27,39.73
           C 70.27,39.73 70.12,39.73 70.12,39.73
             70.12,39.73 68.77,41.24 68.77,41.24
             68.77,41.24 66.24,43.98 66.24,43.98
             66.24,43.98 65.24,45.05 65.24,45.05
             65.24,45.05 63.80,46.39 63.80,46.39
             63.80,46.39 62.58,47.43 62.58,47.43
             62.58,47.43 64.30,48.73 64.30,48.73
             65.54,49.52 67.65,50.31 69.12,50.31
             69.12,50.31 70.34,50.31 70.34,50.31
             70.34,50.31 71.49,50.24 71.49,50.24
             71.49,50.24 75.80,50.24 75.80,50.24
             75.80,50.24 84.71,50.24 84.71,50.24
             84.71,50.24 85.78,50.17 85.78,50.17
             85.78,50.17 94.33,50.17 94.33,50.17
             94.33,50.17 95.41,50.09 95.41,50.09
             95.41,50.09 98.64,50.09 98.64,50.09
             98.80,50.09 99.05,50.11 99.17,50.02
             99.32,49.92 99.73,48.89 99.84,48.65
             99.84,48.65 101.11,45.78 101.11,45.78
             101.11,45.78 101.95,43.83 101.95,43.83
             101.95,43.83 80.54,43.83 80.54,43.83
             80.54,43.83 75.73,43.83 75.73,43.83
             74.26,43.83 72.52,42.85 71.55,41.79
             70.86,41.04 70.71,40.59 70.27,39.73 Z" />
</svg>
